<svg version="1.2" baseProfile="tiny-ps" xmlns="http://www.w3.org/2000/svg" viewBox="0 0 1679 1007" width="1679" height="1007">
	<title>EsteÌe_Lauder_Companies_Logo-svg</title>
	<style>
		tspan { white-space:pre }
		.shp0 { fill: #ffffff } 
	</style>
	<g id="Layer_2_1_">
		<g id="Layer_1-2">
			<path id="Layer" fill-rule="evenodd" class="shp0" d="M545.01 470.67C552.19 470.67 560.27 470.67 567.46 468.88C565.66 491.33 565.66 514.69 563.86 568.58L563.86 636.85C563.86 679.06 567.46 705.11 571.05 715.89C585.41 749.12 615.04 780.56 667.12 778.77C712.91 776.97 744.34 762.6 763.19 724.87C775.76 698.82 777.56 680.86 779.35 614.39L779.35 572.17C777.56 535.35 775.76 511.09 773.97 468.88C779.35 469.77 784.74 470.67 790.13 470.67C795.51 470.67 800.9 470.67 806.29 468.88C804.49 483.25 802.7 563.19 802.7 563.19L802.7 613.49C802.7 679.96 799.11 694.33 791.92 716.79C787.43 733.85 777.56 749.12 764.09 760.8C741.64 786.85 704.83 799.42 660.83 799.42C620.43 799.42 581.82 788.65 559.37 767.99C535.13 743.73 526.15 722.18 526.15 671.88L526.15 559.6C526.15 526.36 522.56 487.74 520.77 468.88C528.85 470.67 536.93 471.57 545.01 470.67ZM356.46 458.1C356.46 458.1 369.03 491.33 380.7 517.38C399.55 554.21 428.29 622.47 439.96 650.32C450.73 676.37 480.36 739.24 480.36 739.24L506.4 794.93C497.42 794.93 490.24 793.14 480.36 793.14C471.38 793.14 463.3 793.14 454.32 794.93L435.47 747.33C431.88 734.75 426.49 722.18 420.2 710.5C414.82 694.33 407.63 679.06 399.55 664.69L276.54 664.69C274.75 670.08 265.77 692.54 259.49 708.7C246.91 737.45 236.14 767.09 228.06 797.63C222.67 795.83 217.29 794.04 211 794.04C205.61 794.04 200.23 794.04 193.94 795.83C193.94 795.83 202.92 771.58 214.59 750.02C228.96 716.79 249.61 672.77 266.67 635.95C279.24 606.31 343.89 463.49 343.89 459.89L356.46 459.89L356.46 458.1ZM328.62 546.12C321.44 561.39 284.63 644.03 284.63 644.03L393.27 644.03C393.27 644.03 374.41 600.92 363.64 573.97C347.48 537.14 339.4 521.87 339.4 524.57C336.7 531.75 333.11 539.84 328.62 546.12ZM923.01 472.47L959.83 470.67L991.25 468.88L1000.23 468.88C1063.08 468.88 1090.91 476.06 1122.34 505.7C1153.77 535.35 1170.83 576.66 1169.93 620.68C1169.93 673.67 1146.58 723.97 1105.28 757.21C1072.06 785.05 1035.25 794.04 951.74 792.24L887.1 792.24C878.12 792.24 870.04 793.14 861.06 794.04C862.86 786.85 864.65 716.79 864.65 699.72L864.65 618.88C864.65 600.02 864.65 550.62 862.86 522.77C862.86 506.6 861.06 470.67 861.06 470.67C874.53 472.47 886.2 473.37 898.77 472.47L923.01 472.47ZM961.62 776.07C978.68 776.97 995.74 776.07 1013.7 774.27C1039.74 771.58 1063.98 759 1081.94 739.24C1109.77 713.19 1122.34 672.77 1122.34 626.07C1120.54 578.46 1109.77 533.55 1076.55 509.3C1050.51 491.33 1036.14 486.84 984.07 485.04C958.93 485.04 933.79 486.84 908.65 490.43L905.06 492.23C905.06 501.21 903.26 547.92 903.26 582.95L903.26 723.08C905.06 745.53 905.06 758.11 906.85 773.38C924.81 776.07 943.66 776.97 961.62 776.07ZM1220.21 468.88C1264.2 470.67 1283.06 470.67 1303.71 470.67L1384.52 470.67C1384.52 474.27 1382.72 479.65 1382.72 483.25C1382.72 486.72 1382.72 495.24 1384.35 495.79C1373.62 494.03 1361.99 494.02 1345.91 492.23C1301.91 490.43 1290.24 490.43 1275.88 490.43L1257.92 490.43L1257.92 547.92C1256.12 557.8 1255.23 567.68 1256.12 577.56C1256.12 593.73 1257.92 610.8 1257.92 610.8L1336.93 610.8C1349.5 609.9 1361.17 609 1373.74 609C1371.95 609 1371.95 614.39 1371.95 621.58C1371.95 626.96 1373.74 634.15 1371.95 634.15C1354.89 632.35 1318.08 630.56 1289.34 630.56L1257.02 630.56L1257.02 698.82C1257.02 716.79 1258.82 730.26 1258.82 732.06C1258.82 744.63 1258.82 758.11 1260.61 770.68C1265.1 772.48 1270.49 772.48 1274.98 772.48C1312.69 771.58 1350.4 767.99 1387.21 763.5C1386.31 767.99 1385.42 772.48 1385.42 776.07L1385.42 790.44L1257.02 790.44C1242.67 789.54 1227.41 790.44 1213.06 792.23C1214.86 791.79 1218.41 753.46 1218.41 727.57L1218.41 687.15L1220.21 627.86C1220.21 627.86 1216.62 485.94 1214.82 467.08L1220.21 467.08L1220.21 468.88ZM1384.35 495.79C1384.41 495.8 1384.46 495.81 1384.52 495.82C1384.46 495.82 1384.4 495.81 1384.35 495.79ZM1213.06 792.23C1213.05 792.24 1213.04 792.24 1213.03 792.24C1213.04 792.24 1213.05 792.24 1213.06 792.23ZM66.44 773.38L90.69 773.38C103.26 774.27 116.72 773.38 129.29 771.58C155.33 771.58 173.29 767.99 178.68 767.99L178.68 794.04L167.9 794.04C155.33 794.04 141.86 793.14 129.29 792.24L40.4 792.24C14.37 792.24 1.8 794.04 0 794.04C1.8 777.87 5.39 694.33 5.39 633.25C5.39 572.17 0 468.88 0 468.88C7.18 468.88 17.06 470.67 24.24 470.67C31.43 470.67 48.49 468.88 48.49 468.88C44 516.48 42.2 563.19 43.1 610.8C43.1 610.8 43.1 729.36 44.89 764.39L46.69 771.58C45.79 773.38 54.77 773.38 66.44 773.38ZM1484.18 636.85L1484.18 694.33L1485.98 740.14L1487.77 790.44L1487.77 794.04C1479.69 793.14 1471.61 792.24 1463.53 792.24C1456.35 792.24 1448.27 792.24 1441.09 794.04L1442.88 743.73C1444.68 706.91 1444.68 673.67 1444.68 616.19C1444.68 579.36 1444.68 560.5 1442.88 518.28C1442.88 502.11 1441.09 470.67 1441.09 470.67C1452.76 472.47 1464.43 472.47 1476.1 472.47C1485.08 472.47 1500.34 470.67 1512.91 470.67C1535.36 468.88 1549.73 468.88 1553.32 468.88C1630.54 468.88 1652.98 505.7 1652.98 542.53C1652.98 586.54 1614.37 619.78 1549.73 633.25L1549.73 635.05L1584.74 677.27L1616.17 715.89L1651.19 759.9C1665.55 778.77 1670.04 785.95 1679.02 794.93L1626.94 794.93L1571.28 718.58C1556.91 697.92 1506.63 637.74 1504.83 637.74L1484.18 636.85ZM1576.66 605.41C1598.21 593.73 1610.78 570.38 1609.89 546.12C1608.09 511.09 1587.44 485.04 1532.67 485.04C1516.51 485.04 1500.34 486.84 1484.18 490.43L1484.18 617.98C1492.26 620.68 1501.24 620.68 1510.22 620.68C1547.03 620.68 1560.5 615.29 1576.66 605.41ZM316.05 64.67C274.75 66.47 251.4 88.92 251.4 123.96C251.4 148.21 265.77 169.77 288.22 179.65C298.99 183.24 316.05 192.22 332.21 198.51C386.09 215.58 407.63 240.73 407.63 279.35C407.63 340.43 355.56 384.44 290.91 384.44C261.28 385.34 232.55 375.46 210.1 356.6C210.1 356.6 215.49 330.55 217.29 319.77C217.29 319.77 250.51 371.87 298.09 369.17C337.6 370.97 370.82 339.53 371.72 300.01C371.72 299.11 371.72 298.21 371.72 297.31C371.72 264.08 351.07 243.42 303.48 227.25C255.89 211.08 235.24 192.22 226.26 176.95C219.08 164.38 215.49 150.9 215.49 136.53C215.49 84.43 257.69 47.61 318.74 47.61C368.13 47.61 392.37 71.86 392.37 71.86C387 83.5 382.52 96.03 379.83 108.56C379.51 106.01 360.43 64.67 316.05 64.67ZM379.83 108.56C379.84 108.64 379.83 108.69 379.8 108.69C379.81 108.64 379.82 108.6 379.83 108.56ZM568.35 79.04L566.56 132.94L564.76 197.61C563.86 219.17 563.86 240.73 564.76 262.28C563.86 301.81 565.66 341.33 568.35 380.85C568.35 380.85 553.99 379.05 544.11 379.05C536.93 379.05 528.85 379.95 521.66 380.85C523.46 354.8 525.26 326.96 525.26 264.08L525.26 132.94C525.26 132.94 523.46 92.52 523.46 79.04L472.28 80.84C455.22 80.84 437.26 81.74 420.2 84.43C420.2 79.04 421.1 74.55 422 69.16C422 64.67 421.1 60.18 420.2 56.59C424.69 58.38 538.72 58.38 538.72 58.38L553.99 58.38C594.39 58.38 668.02 56.59 668.02 56.59L668.02 70.06C668.02 75.45 668.91 79.94 669.81 85.33C647.37 81.74 634.8 81.74 612.35 79.94L568.35 79.94L568.35 79.04ZM7.18 57.49C51.18 59.28 68.24 59.28 89.79 59.28C102.36 59.28 156.23 59.28 165.21 57.49L170.6 57.49C170.6 61.08 168.8 66.47 168.8 70.06L168.8 82.64C156.23 82.64 144.56 82.64 131.99 80.84C88.89 79.04 75.42 79.04 62.85 79.04L44 79.04L44 84.43L42.2 136.53L42.2 197.61C42.2 198.51 43.1 199.41 44 199.41L87.99 199.41C93.38 199.41 102.36 199.41 123.01 197.61L158.03 197.61L158.03 221.86C139.17 221.86 104.15 220.07 72.73 218.27C62.85 218.27 52.97 218.27 43.1 220.07L42.2 220.07L42.2 251.5L44 288.33L44 321.57C44 328.75 45.79 345.82 45.79 358.39L47.59 360.19L62.85 360.19C101.46 360.19 157.13 354.8 175.09 353C174.19 357.5 173.29 361.99 173.29 365.58L173.29 379.95L132.89 379.95L101.46 378.15L42.2 379.95L0 379.95C0 379.95 3.59 343.12 3.59 317.08L5.39 276.65L5.39 217.37C5.39 217.37 3.59 75.45 1.8 56.59L7.18 56.59L7.18 57.49ZM711.11 20.66L711.11 0L882.61 0L882.61 20.66L711.11 20.66ZM718.3 57.49C762.29 59.28 781.15 59.28 801.8 59.28C814.37 59.28 870.04 59.28 877.22 57.49L884.4 57.49C882.61 61.98 882.61 66.47 882.61 70.06L882.61 82.64C870.04 82.64 856.57 82.64 844 80.84C801.8 79.04 788.33 79.04 773.97 79.04L756.01 79.04L756.01 199.41L801.8 199.41C807.19 199.41 814.37 199.41 836.82 197.61L870.94 197.61C870.94 201.2 870.04 204.8 869.14 208.39C869.14 212.88 870.04 217.37 870.94 220.96C852.08 220.96 817.06 219.17 785.64 217.37C774.86 217.37 764.99 217.37 754.21 219.17L754.21 251.5L756.01 288.33L756.01 321.57C756.01 328.75 757.8 345.82 757.8 358.39L757.8 360.19L773.97 360.19C810.78 360.19 868.24 354.8 884.4 353C883.51 357.5 882.61 361.99 882.61 365.58C882.61 370.97 882.61 375.46 884.4 379.95L844 379.95L812.57 378.15L753.31 379.95L711.11 379.95C711.11 379.95 714.71 343.12 714.71 317.08L714.71 276.65L716.5 217.37C716.5 217.37 714.71 75.45 711.11 56.59L718.3 57.49ZM943.66 57.49C987.66 59.28 1006.51 59.28 1026.27 59.28C1038.84 59.28 1094.51 59.28 1101.69 57.49L1108.87 57.49C1107.08 61.98 1107.08 66.47 1107.08 70.06L1107.08 82.64C1094.51 82.64 1081.04 82.64 1068.47 80.84C1026.27 79.04 1012.8 79.04 998.43 79.04L980.48 79.04L980.48 199.41L1026.27 199.41C1031.66 199.41 1038.84 199.41 1061.29 197.61L1096.3 197.61C1096.3 201.2 1095.4 204.8 1094.51 208.39C1094.51 212.88 1095.4 217.37 1096.3 220.96C1077.45 220.96 1042.43 219.17 1011 217.37C1000.23 217.37 990.35 217.37 979.58 219.17L979.58 251.5L981.37 288.33L981.37 321.57C981.37 328.75 983.17 345.82 983.17 358.39L983.17 360.19L999.33 360.19C1036.14 360.19 1093.61 354.8 1109.77 353C1108.87 357.5 1107.97 361.99 1107.97 365.58C1107.97 370.97 1107.97 375.46 1109.77 379.95L1069.37 379.95L1037.94 378.15L978.68 379.95L936.48 379.95C936.48 379.95 940.07 343.12 940.07 317.08L940.07 276.65L941.87 217.37C941.87 217.37 940.07 75.45 936.48 56.59L943.66 57.49ZM114.93 982.66L111.34 995.24C98.77 1003.32 83.5 1006.92 69.14 1006.02C26.94 1006.02 0.9 979.97 0.9 937.75C0.9 918.89 8.08 900.03 21.55 885.65C36.81 873.98 55.67 867.69 75.42 869.49C89.79 868.59 103.26 871.28 115.83 876.67C114.03 881.16 112.23 886.55 112.23 891.04L110.44 891.04C100.56 881.16 87.09 875.77 72.73 876.67C57.46 875.77 42.2 882.96 32.32 894.64C23.34 907.21 18.86 921.58 19.75 936.85C18.86 953.02 24.24 968.29 34.12 980.87C43.1 991.65 56.57 997.93 70.93 997.04C87.09 997.04 101.46 991.65 113.13 980.87L114.93 982.66ZM349.27 937.75C349.27 979.97 321.44 1006.02 277.44 1006.02C231.65 1006.02 203.82 979.97 203.82 937.75C203.82 895.54 231.65 869.49 277.44 869.49C321.44 869.49 349.27 895.54 349.27 937.75ZM223.57 937.75C222.67 952.12 226.26 966.5 234.34 979.07C243.32 993.44 259.49 1001.53 276.54 1001.53C292.71 1001.53 307.97 993.44 316.95 979.07C325.03 967.39 328.62 953.02 327.72 938.65C328.62 923.38 324.13 909.01 316.95 896.43C307.97 882.96 292.71 875.77 276.54 875.77C260.38 874.88 244.22 882.96 234.34 895.54C226.26 908.11 222.67 923.38 223.57 937.75ZM468.69 869.49C470.49 873.08 470.49 873.08 474.08 880.27C477.67 885.65 479.46 891.04 483.06 896.43L486.65 905.42C499.22 927.87 495.63 924.28 504.6 938.65C509.99 950.33 516.28 961.11 523.46 971.88C527.95 963.8 533.34 955.72 538.72 947.63C542.31 938.65 546.8 929.67 551.29 921.58L554.89 912.6L560.27 905.42L565.66 896.43C569.25 888.35 573.74 880.27 578.23 872.18L580.03 868.59L583.62 868.59C585.41 872.18 585.41 870.38 585.41 879.37C586.31 888.35 587.21 898.23 589 907.21L589 914.4L590.8 921.58L590.8 935.96C592.6 942.24 593.49 949.43 594.39 956.62L594.39 963.8L596.19 979.07C597.98 989.85 597.98 995.24 599.78 1003.32C597.09 1002.42 593.49 1001.53 590.8 1001.53C588.11 1001.53 584.51 1002.42 581.82 1003.32C581.82 994.34 581.82 984.46 580.03 975.48C578.23 945.84 578.23 945.84 572.84 903.62C568.35 909.01 564.76 915.3 562.07 922.48C560.27 926.08 562.07 922.48 554.89 936.85C551.29 944.94 546.8 952.12 542.31 959.31C529.74 985.36 526.15 990.75 521.66 999.73L519.87 999.73C518.07 996.14 518.07 996.14 512.69 983.56C510.89 979.97 516.28 988.95 497.42 953.92C493.83 945.84 490.24 938.65 484.85 931.46L474.08 909.91L472.28 908.11L472.28 907.21C468.69 924.28 466 941.35 465.1 959.31C463.3 985.36 463.3 992.54 461.51 1005.12C457.91 1002.42 452.53 1002.42 448.94 1005.12C450.73 997.93 450.73 992.54 452.53 982.66C457.91 949.43 456.12 958.41 456.12 953.02C457.91 948.53 457.91 944.94 457.91 940.45L459.71 933.26C463.3 910.81 461.51 922.48 465.1 900.03C466.89 881.16 466.89 881.16 468.69 870.38L468.69 869.49ZM725.48 947.63L725.48 993.44C727.28 997.04 727.28 1000.63 727.28 1004.22C724.58 1003.32 720.99 1002.42 718.3 1002.42C714.71 1002.42 711.11 1003.32 707.52 1004.22C709.32 996.14 709.32 988.05 709.32 979.97C709.32 967.39 711.11 944.94 711.11 935.96C711.11 917.99 709.32 904.52 709.32 891.94C709.32 884.76 708.42 878.47 707.52 871.28C712.91 873.08 718.3 873.08 723.69 873.08C729.07 873.08 733.56 872.18 738.95 871.28L749.72 871.28C779.35 871.28 793.72 882.06 793.72 904.52C792.82 917.09 787.43 928.77 777.56 935.96C765.89 941.35 752.42 944.04 738.95 943.14L726.38 943.14L726.38 947.63L725.48 947.63ZM734.46 935.96C762.29 935.96 774.86 925.18 774.86 904.52C774.86 888.35 764.09 878.47 741.64 878.47C736.26 878.47 731.77 878.47 726.38 880.27C725.48 884.76 724.58 889.25 724.58 892.84L725.48 935.96L734.46 935.96ZM926.6 869.49C928.4 874.88 926.6 869.49 931.99 884.76C934.69 891.94 937.38 898.23 940.97 905.42C959.83 947.63 953.54 935.06 959.83 949.43L963.42 960.21C974.19 980.87 970.6 974.58 972.4 980.87C977.78 993.44 979.58 993.44 983.17 1005.12C980.48 1003.32 976.89 1003.32 974.19 1003.32C970.6 1003.32 967.01 1003.32 963.42 1005.12C961.62 996.14 958.93 987.15 954.44 979.07C951.74 970.09 948.15 961.11 943.66 953.02L896.08 953.02C887.1 975.48 887.1 973.68 875.43 1005.12C873.63 1003.32 871.83 1003.32 870.04 1003.32C867.34 1003.32 864.65 1004.22 862.86 1005.12C866.45 996.14 870.04 988.95 877.22 971.88C882.61 961.11 886.2 949.43 892.49 938.65C899.67 922.48 905.06 910.81 906.85 905.42C911.34 899.13 914.03 891.94 915.83 884.76C918.52 881.16 920.32 877.57 921.22 873.98L923.01 872.18L923.01 870.38L926.6 869.49ZM940.97 944.04C939.17 941.35 937.38 937.75 935.58 935.06C926.6 910.81 930.2 918.89 926.6 912.6C924.81 907.21 922.11 900.92 919.42 896.43L898.77 944.04L940.97 944.04ZM1078.34 869.49L1080.14 871.28C1086.43 876.67 1091.81 882.06 1096.3 887.45C1101.69 894.64 1107.97 901.82 1115.16 908.11L1120.54 915.3L1127.73 920.69L1133.11 927.87C1140.3 934.16 1147.48 942.24 1153.77 950.33L1174.42 970.99L1174.42 969.19C1176.21 965.6 1174.42 970.99 1176.21 953.02L1176.21 928.77C1176.21 913.5 1176.21 898.23 1174.42 882.96L1174.42 871.28C1176.21 872.18 1178.91 873.08 1181.6 873.08C1183.4 873.08 1185.19 873.08 1186.99 871.28L1186.99 887.45C1185.19 899.13 1185.19 910.81 1185.19 922.48C1183.4 936.85 1183.4 952.12 1183.4 966.5L1183.4 994.34C1183.4 997.93 1184.29 1001.53 1185.19 1005.12L1181.6 1005.12C1173.52 994.34 1165.44 984.46 1155.56 975.48C1146.58 966.5 1136.71 953.02 1127.73 945.84C1124.14 940.45 1129.52 947.63 1108.87 925.18L1096.3 912.6C1083.73 897.33 1087.32 901.82 1085.53 901.82L1083.73 900.03L1083.73 950.33C1083.73 963.8 1083.73 977.27 1085.53 990.75L1085.53 1003.32C1083.73 1001.53 1081.94 1001.53 1078.34 1001.53C1076.55 1001.53 1074.75 1001.53 1072.96 1003.32C1072.96 995.24 1072.96 987.15 1074.75 979.07L1074.75 935.06L1076.55 927.87L1076.55 869.49L1078.34 869.49ZM1318.08 871.28C1318.08 878.47 1318.08 886.55 1316.28 893.74L1316.28 980.87C1316.28 989.85 1318.08 995.24 1318.08 1005.12C1315.38 1004.22 1311.79 1003.32 1309.1 1003.32C1306.4 1003.32 1302.81 1003.32 1300.12 1005.12L1300.12 980.87C1300.12 973.68 1301.02 965.6 1301.91 958.41L1301.91 928.77C1301.91 917.09 1301.91 905.42 1300.12 893.74L1300.12 871.28C1302.81 873.08 1305.51 873.08 1309.1 873.08C1311.79 873.08 1315.38 873.08 1318.08 871.28ZM1439.29 1002.42C1434.8 1001.53 1430.31 1002.42 1426.72 1004.22C1426.72 995.24 1428.51 985.36 1428.51 967.39L1428.51 893.74C1429.41 886.55 1428.51 878.47 1426.72 871.28C1432.11 871.28 1433.9 873.08 1441.09 873.08L1483.29 873.08C1490.47 873.08 1490.47 871.28 1494.06 871.28L1494.06 882.06L1479.69 882.06C1476.1 882.06 1470.71 880.27 1462.63 880.27L1444.68 880.27L1444.68 911.7C1442.88 922.48 1442.88 918.89 1444.68 918.89C1442.88 922.48 1442.88 922.48 1442.88 924.28C1442.88 926.08 1442.88 927.87 1444.68 927.87C1446.47 929.67 1449.17 929.67 1451.86 929.67C1456.35 929.67 1460.84 928.77 1464.43 927.87L1490.47 927.87L1490.47 938.65C1479.69 936.85 1468.02 935.96 1457.25 936.85L1442.88 936.85C1443.78 937.75 1444.68 939.55 1444.68 940.45L1442.88 955.72C1442.88 962 1443.78 967.39 1444.68 973.68L1444.68 992.54C1446.47 993.44 1449.17 994.34 1451.86 994.34C1457.25 994.34 1462.63 993.44 1468.92 992.54C1477.9 993.44 1487.77 992.54 1496.75 990.75L1496.75 1003.32L1494.96 1003.32L1494.96 1001.53L1459.94 1002.42L1439.29 1002.42ZM1644.9 893.74C1641.31 883.86 1631.43 877.57 1620.66 877.57C1608.99 876.67 1598.21 884.76 1596.42 897.33C1596.42 898.23 1596.42 899.13 1596.42 900.03C1595.52 907.21 1598.21 914.4 1603.6 918.89C1610.78 923.38 1617.97 926.97 1626.05 929.67C1634.13 932.36 1642.21 936.85 1648.49 942.24C1653.88 947.63 1657.47 954.82 1657.47 962.9C1657.47 988.95 1636.82 1006.92 1608.99 1006.92C1597.31 1006.92 1586.54 1003.32 1577.56 996.14C1579.36 990.75 1580.26 985.36 1581.15 979.97L1582.95 979.97C1588.34 990.75 1600.01 997.93 1612.58 998.83C1626.94 999.73 1639.51 988.95 1640.41 974.58C1640.41 973.68 1640.41 972.78 1640.41 972.78C1640.41 966.5 1638.62 959.31 1635.03 953.92C1627.84 949.43 1620.66 945.84 1612.58 943.14C1588.34 934.16 1581.15 925.18 1581.15 906.31C1581.15 896.43 1584.74 887.45 1591.93 880.27C1600.91 873.98 1610.78 871.28 1621.56 871.28C1632.33 870.38 1643.11 873.98 1651.19 880.27C1647.6 884.76 1645.8 889.25 1645.8 895.54L1644.9 893.74Z" />
		</g>
	</g>
</svg>